<svg width="32" height="32" viewBox="0 0 32 32" fill="none" xmlns="http://www.w3.org/2000/svg">
<g clip-path="url(#clip0_1_2)">
<rect width="32" height="32" rx="16" fill="white"/>
<path d="M9.02748 20.168C8.41948 20.168 7.87548 20.06 7.39548 19.844C6.91548 19.628 6.53548 19.304 6.25548 18.872C5.98348 18.432 5.84748 17.884 5.84748 17.228V16.976H6.84348V17.228C6.84348 17.924 7.04748 18.444 7.45548 18.788C7.86348 19.124 8.38748 19.292 9.02748 19.292C9.68348 19.292 10.1835 19.144 10.5275 18.848C10.8715 18.552 11.0435 18.18 11.0435 17.732C11.0435 17.42 10.9635 17.172 10.8035 16.988C10.6515 16.804 10.4355 16.656 10.1555 16.544C9.87548 16.424 9.54748 16.32 9.17148 16.232L8.54748 16.076C8.05948 15.948 7.62748 15.792 7.25148 15.608C6.87548 15.424 6.57948 15.184 6.36348 14.888C6.15548 14.584 6.05148 14.196 6.05148 13.724C6.05148 13.252 6.16748 12.844 6.39948 12.5C6.63948 12.156 6.97148 11.892 7.39548 11.708C7.82748 11.524 8.32348 11.432 8.88348 11.432C9.45148 11.432 9.95948 11.532 10.4075 11.732C10.8635 11.924 11.2195 12.212 11.4755 12.596C11.7395 12.972 11.8715 13.448 11.8715 14.024V14.528H10.8755V14.024C10.8755 13.616 10.7875 13.288 10.6115 13.04C10.4435 12.792 10.2075 12.608 9.90348 12.488C9.60748 12.368 9.26748 12.308 8.88348 12.308C8.33148 12.308 7.88748 12.432 7.55148 12.68C7.21548 12.92 7.04748 13.264 7.04748 13.712C7.04748 14.008 7.11948 14.248 7.26348 14.432C7.40748 14.616 7.61148 14.768 7.87548 14.888C8.13948 15 8.45548 15.1 8.82348 15.188L9.44748 15.344C9.93548 15.448 10.3715 15.592 10.7555 15.776C11.1475 15.952 11.4595 16.196 11.6915 16.508C11.9235 16.812 12.0395 17.212 12.0395 17.708C12.0395 18.204 11.9155 18.636 11.6675 19.004C11.4195 19.372 11.0675 19.66 10.6115 19.868C10.1635 20.068 9.63548 20.168 9.02748 20.168ZM13.5909 20V11.6H18.6669V12.512H14.5989V15.332H18.3429V16.244H14.5989V20H13.5909ZM23.0253 20.168C22.0253 20.168 21.2293 19.88 20.6373 19.304C20.0453 18.72 19.7493 17.872 19.7493 16.76V14.84C19.7493 13.728 20.0453 12.884 20.6373 12.308C21.2293 11.724 22.0253 11.432 23.0253 11.432C24.0173 11.432 24.7773 11.708 25.3053 12.26C25.8413 12.812 26.1093 13.568 26.1093 14.528V14.588H25.1133V14.492C25.1133 13.86 24.9413 13.344 24.5973 12.944C24.2613 12.536 23.7373 12.332 23.0253 12.332C22.3133 12.332 21.7573 12.552 21.3573 12.992C20.9573 13.424 20.7573 14.032 20.7573 14.816V16.784C20.7573 17.568 20.9573 18.18 21.3573 18.62C21.7573 19.052 22.3133 19.268 23.0253 19.268C23.7373 19.268 24.2613 19.068 24.5973 18.668C24.9413 18.26 25.1133 17.74 25.1133 17.108V16.916H26.1093V17.072C26.1093 18.032 25.8413 18.788 25.3053 19.34C24.7773 19.892 24.0173 20.168 23.0253 20.168Z" fill="black"/>
</g>
<defs>
<clipPath id="clip0_1_2">
<rect width="32" height="32" rx="16" fill="white"/>
</clipPath>
</defs>
</svg>
